Genre:Action | Adventure | Fantasy
Language:English
 
http://www.imdb.com/title/tt1781896/

Source:720p.Bluray.x264.DTS-HDChina Thanks!

Format : MPEG-4
Format profile : Base Media
Codec ID : isom
File size : 2.51 GiB
Duration : 1h 45mn
Overall bit rate : 3 409 Kbps

Video
ID : 1
Format : AVC
Format/Info : Advanced Video Codec
Format profile : High@L5.1
Format settings, CABAC : Yes
Format settings, ReFrames : 3 frames
Codec ID : avc1
Codec ID/Info : Advanced Video Coding
Duration : 1h 45mn
Bit rate mode : Variable
Bit rate : 3 000 Kbps
Maximum bit rate : 15.7 Mbps
Width : 1 280 pixels
Height : 720 pixels
Display aspect ratio : 16:9
Frame rate mode : Constant
Frame rate : 23.976 fps
Color space : YUV
Chroma subsampling : 4:2:0
Bit depth : 8 bits
Scan type : Progressive
Bits/(Pixel*Frame) : 0.136
Stream size : 2.17 GiB (87%)
Writing library : x264

Audio
ID : 2
Format : AAC
Format/Info : Advanced Audio Codec
Format version : Version 4
Format profile : LC
Format settings, SBR : No
Codec ID : 40
Duration : 1h 45mn
Bit rate mode : Variable
Bit rate : 447 Kbps
Maximum bit rate : 495 Kbps
Channel(s) : 6 channels
Channel positions : Front: L C R, Side: L R, LFE
Sampling rate : 48.0 KHz
Stream size : 336 MiB (13%)


Plot:
Since his triumphant rise to power in the original blockbuster The Scorpion King,
Mathayus' kingdom has fallen and he's lost his queen to plague. Now an assassin
for hire, he must defend a kingdom from an evil tyrant and his ghost warriors
for the chance to regain the power and glory he once knew.

